<?xml version="1.0" encoding="UTF-8"?>
<svg xmlns="http://www.w3.org/2000/svg" xmlns:xlink="http://www.w3.org/1999/xlink" viewBox="0 0 24 24" version="1.1" width="24px" height="24px">
<g id="surface1">
<path style=" " d="M 12 2 C 6.5 2 2 6.5 2 12 C 2 17.5 6.5 22 12 22 C 17.5 22 22 17.5 22 12 L 22 11 C 21.398438 11.898438 20.8125 12.707031 20.3125 13.40625 C 19.914063 15.605469 18.699219 17.511719 17 18.8125 C 16.898438 18.511719 16.789063 18.113281 16.6875 17.8125 C 16.585938 17.414063 16.511719 16.992188 16.3125 16.59375 C 16.210938 16.195313 16.105469 15.800781 15.90625 15.5 C 15.804688 15.398438 15.605469 15.289063 15.40625 15.1875 C 14.707031 14.988281 13.8125 15.292969 13.3125 14.59375 C 13.113281 14.292969 13.085938 13.992188 13.1875 13.59375 C 13.386719 13.292969 13.488281 12.988281 13.6875 12.6875 C 13.886719 12.289063 14.210938 11.8125 14.3125 11.3125 C 13.511719 10.113281 12.710938 8.707031 12.3125 7.40625 L 12.1875 7.40625 C 12.085938 7.40625 12.101563 7.414063 12 7.3125 C 11.800781 7.113281 11.710938 6.613281 11.8125 6.3125 C 11.8125 5.8125 12.101563 5.5 12 5 C 12 4.898438 11.90625 4.09375 11.90625 4.09375 C 11.605469 4.09375 11.085938 4.09375 11.1875 3.59375 L 11.1875 3.5 L 12.5 3.5 C 12.699219 2.898438 13.105469 2.398438 13.40625 2 Z M 18 2 C 15.800781 2 14 3.800781 14 6 C 14 8.199219 18 13 18 13 C 18 13 22 8.199219 22 6 C 22 3.800781 20.199219 2 18 2 Z M 18 4.5 C 18.800781 4.5 19.5 5.199219 19.5 6 C 19.5 6.800781 18.800781 7.5 18 7.5 C 17.199219 7.5 16.5 6.800781 16.5 6 C 16.5 5.199219 17.199219 4.5 18 4.5 Z M 8 5.09375 C 8.363281 5.070313 8.699219 5.085938 9 5.1875 C 9.300781 5.289063 9.613281 5.488281 9.8125 5.6875 C 10.011719 5.886719 10.3125 6.199219 10.3125 6.5 C 10.3125 6.601563 10.289063 6.6875 10.1875 6.6875 C 10.085938 6.789063 10.007813 6.8125 9.90625 6.8125 C 9.605469 6.8125 9.292969 6.789063 9.09375 6.6875 C 8.992188 6.585938 8.792969 6.414063 8.59375 6.3125 C 8.09375 6.113281 7.195313 7.414063 7.09375 7.8125 C 6.992188 8.113281 7 8.804688 7.5 8.90625 C 7.800781 8.90625 8.488281 8.292969 8.6875 8.09375 C 8.886719 7.992188 8.988281 7.914063 9.1875 7.8125 C 9.988281 7.710938 10.613281 8.394531 10.8125 9.09375 C 11.011719 9.894531 9.601563 10.488281 9 10.6875 C 8.800781 10.789063 8.699219 10.585938 8.5 10.6875 C 8 10.886719 7.40625 11.59375 7.40625 12.09375 C 7.40625 12.59375 7.289063 13.09375 7.1875 13.59375 C 7.085938 13.59375 7 13.5 7 13.5 L 7 13.3125 C 7 13.011719 6.894531 12.699219 6.59375 12.5 C 6.492188 12.5 6.507813 12.40625 6.40625 12.40625 C 6.105469 12.304688 5.800781 12.011719 5.5 12.3125 C 5.300781 12.511719 5.09375 12.792969 5.09375 13.09375 C 5.09375 13.195313 5.085938 13.304688 5.1875 13.40625 C 5.386719 13.507813 5.613281 13.40625 5.8125 13.40625 C 5.914063 13.40625 5.992188 13.585938 6.09375 13.6875 C 6.292969 13.988281 6.414063 14.5 6.8125 14.5 L 8.8125 14.5 C 9.113281 14.601563 9.613281 14.707031 9.8125 14.90625 C 9.914063 15.105469 9.898438 15.300781 10 15.5 C 10.398438 16 11.085938 15.988281 11.6875 16.1875 C 11.886719 16.289063 12 16.394531 12 16.59375 C 12 16.894531 11.914063 17.292969 11.8125 17.59375 C 11.710938 17.894531 11.605469 18.300781 11.40625 18.5 C 11.207031 18.699219 11.011719 18.804688 10.8125 18.90625 C 10.414063 19.105469 10.199219 19.511719 10 19.8125 C 10 19.8125 9.914063 19.992188 9.8125 20.09375 C 9.011719 19.894531 8.292969 19.59375 7.59375 19.09375 L 7.59375 18.90625 C 7.492188 18.507813 7.414063 18.207031 7.3125 17.90625 C 7.113281 17.40625 6.789063 16.8125 6.6875 16.3125 C 6.6875 15.8125 6.800781 15.304688 6.5 14.90625 C 6.199219 14.40625 5.40625 14.394531 4.90625 14.09375 C 4.507813 13.695313 3.992188 13.3125 3.59375 12.8125 L 3.59375 12 C 3.59375 9.300781 4.90625 6.914063 6.90625 5.3125 C 7.257813 5.210938 7.636719 5.117188 8 5.09375 Z "/>
</g>
</svg>
